# xmcd
#
# Track frame offsets: 
#        150
#        14496
#        43124
#        63232
#        86115
#        110423
#        131548
#        164700
#        187334
#        210804
#        235015
#
# Disc length: 3490 seconds
#
# Revision: 4
# Processed by: cddbd v1.5.2PL0 Copyright (c) Steve Scherf et al.
# Submitted via: ExactAudioCopy v0.99pb5
#
DISCID=970da00b
DTITLE=Rotersand - 1023 | tentwentythree
DYEAR=2007
DGENRE=Electro
TTITLE0=1023 (Given Time)
TTITLE1=Rushing
TTITLE2=Don't Know
TTITLE3=Lost
TTITLE4=I Am With You
TTITLE5=I Cry
TTITLE6=Shelter
TTITLE7=The Gods Have Gone Insane
TTITLE8=Meaning Is The Drug
TTITLE9=I Don't Remember
TTITLE10=Inner World
EXTD=
EXTT0=
EXTT1=
EXTT2=
EXTT3=
EXTT4=
EXTT5=
EXTT6=
EXTT7=
EXTT8=
EXTT9=
EXTT10=
PLAYORDER=
